<svg width="117" height="175" viewBox="0 0 117 175" fill="none" xmlns="http://www.w3.org/2000/svg">
<circle cx="3.5" cy="3.5" r="3.5" fill="#1176BB"/>
<circle cx="15.6895" cy="3.5" r="3.5" fill="#1176BB"/>
<circle cx="27.8809" cy="3.5" r="3.5" fill="#1176BB"/>
<circle cx="40.0703" cy="3.5" r="3.5" fill="#1176BB"/>
<circle cx="52.2617" cy="3.5" r="3.5" fill="#1176BB"/>
<circle cx="64.4514" cy="3.5" r="3.5" fill="#1176BB"/>
<circle cx="76.6426" cy="3.5" r="3.5" fill="#1176BB"/>
<circle cx="88.8319" cy="3.5" r="3.5" fill="#1176BB"/>
<circle cx="101.021" cy="3.5" r="3.5" fill="#1176BB"/>
<circle cx="113.213" cy="3.5" r="3.5" fill="#1176BB"/>
<circle cx="3.5" cy="22.166" r="3.5" fill="#1176BB"/>
<circle cx="15.6895" cy="22.166" r="3.5" fill="#1176BB"/>
<circle cx="27.8809" cy="22.166" r="3.5" fill="#1176BB"/>
<circle cx="40.0703" cy="22.166" r="3.5" fill="#1176BB"/>
<circle cx="52.2617" cy="22.166" r="3.5" fill="#1176BB"/>
<circle cx="64.4512" cy="22.166" r="3.5" fill="#1176BB"/>
<circle cx="76.6426" cy="22.166" r="3.5" fill="#1176BB"/>
<circle cx="88.832" cy="22.166" r="3.5" fill="#1176BB"/>
<circle cx="101.021" cy="22.166" r="3.5" fill="#1176BB"/>
<circle cx="113.213" cy="22.166" r="3.5" fill="#1176BB"/>
<circle cx="3.5" cy="40.833" r="3.5" fill="#1176BB"/>
<circle cx="15.6895" cy="40.833" r="3.5" fill="#1176BB"/>
<circle cx="27.8809" cy="40.833" r="3.5" fill="#1176BB"/>
<circle cx="40.0703" cy="40.833" r="3.5" fill="#1176BB"/>
<circle cx="52.2617" cy="40.833" r="3.5" fill="#1176BB"/>
<circle cx="64.4512" cy="40.833" r="3.5" fill="#1176BB"/>
<circle cx="76.6426" cy="40.833" r="3.5" fill="#1176BB"/>
<circle cx="88.832" cy="40.833" r="3.5" fill="#1176BB"/>
<circle cx="101.021" cy="40.833" r="3.5" fill="#1176BB"/>
<circle cx="113.213" cy="40.833" r="3.5" fill="#1176BB"/>
<circle cx="3.5" cy="59.5" r="3.5" fill="#1176BB"/>
<circle cx="15.6895" cy="59.5" r="3.5" fill="#1176BB"/>
<circle cx="27.8809" cy="59.5" r="3.5" fill="#1176BB"/>
<circle cx="40.0703" cy="59.5" r="3.5" fill="#1176BB"/>
<circle cx="52.2617" cy="59.5" r="3.5" fill="#1176BB"/>
<circle cx="64.4512" cy="59.5" r="3.5" fill="#1176BB"/>
<circle cx="76.6426" cy="59.5" r="3.5" fill="#1176BB"/>
<circle cx="88.832" cy="59.5" r="3.5" fill="#1176BB"/>
<circle cx="101.021" cy="59.5" r="3.5" fill="#1176BB"/>
<circle cx="113.213" cy="59.5" r="3.5" fill="#1176BB"/>
<circle cx="3.5" cy="78.167" r="3.5" fill="#1176BB"/>
<circle cx="15.6895" cy="78.167" r="3.5" fill="#1176BB"/>
<circle cx="27.8809" cy="78.167" r="3.5" fill="#1176BB"/>
<circle cx="40.0703" cy="78.167" r="3.5" fill="#1176BB"/>
<circle cx="52.2617" cy="78.167" r="3.5" fill="#1176BB"/>
<circle cx="64.4512" cy="78.167" r="3.5" fill="#1176BB"/>
<circle cx="76.6426" cy="78.167" r="3.5" fill="#1176BB"/>
<circle cx="88.832" cy="78.167" r="3.5" fill="#1176BB"/>
<circle cx="101.021" cy="78.167" r="3.5" fill="#1176BB"/>
<circle cx="113.213" cy="78.167" r="3.5" fill="#1176BB"/>
<circle cx="3.5" cy="96.833" r="3.5" fill="#1176BB"/>
<circle cx="15.6895" cy="96.833" r="3.5" fill="#1176BB"/>
<circle cx="27.8809" cy="96.833" r="3.5" fill="#1176BB"/>
<circle cx="40.0703" cy="96.833" r="3.5" fill="#1176BB"/>
<circle cx="52.2617" cy="96.833" r="3.5" fill="#1176BB"/>
<circle cx="88.8319" cy="96.833" r="3.5" fill="#1176BB"/>
<circle cx="101.021" cy="96.833" r="3.5" fill="#1176BB"/>
<circle cx="113.213" cy="96.833" r="3.5" fill="#1176BB"/>
<circle cx="3.5" cy="115.5" r="3.5" fill="#1176BB"/>
<circle cx="15.6895" cy="115.5" r="3.5" fill="#1176BB"/>
<circle cx="27.8809" cy="115.5" r="3.5" fill="#1176BB"/>
<circle cx="40.0703" cy="115.5" r="3.5" fill="#1176BB"/>
<circle cx="52.2617" cy="115.5" r="3.5" fill="#1176BB"/>
<circle cx="64.4512" cy="115.499" r="3.5" fill="#1176BB"/>
<circle cx="64.4512" cy="96.9326" r="3.5" fill="#1176BB"/>
<circle cx="76.6426" cy="96.9326" r="3.5" fill="#1176BB"/>
<circle cx="76.6426" cy="115.499" r="3.5" fill="#1176BB"/>
<circle cx="88.832" cy="115.499" r="3.5" fill="#1176BB"/>
<circle cx="101.021" cy="115.5" r="3.5" fill="#1176BB"/>
<circle cx="113.213" cy="115.5" r="3.5" fill="#1176BB"/>
<circle cx="3.5" cy="134.166" r="3.5" fill="#1176BB"/>
<circle cx="15.6895" cy="134.166" r="3.5" fill="#1176BB"/>
<circle cx="27.8809" cy="134.166" r="3.5" fill="#1176BB"/>
<circle cx="40.0703" cy="134.166" r="3.5" fill="#1176BB"/>
<circle cx="52.2617" cy="134.166" r="3.5" fill="#1176BB"/>
<circle cx="64.4512" cy="134.166" r="3.5" fill="#1176BB"/>
<circle cx="76.6426" cy="134.166" r="3.5" fill="#1176BB"/>
<circle cx="88.832" cy="134.166" r="3.5" fill="#1176BB"/>
<circle cx="101.021" cy="134.166" r="3.5" fill="#1176BB"/>
<circle cx="113.213" cy="134.166" r="3.5" fill="#1176BB"/>
<circle cx="3.5" cy="152.833" r="3.5" fill="#1176BB"/>
<circle cx="15.6895" cy="152.833" r="3.5" fill="#1176BB"/>
<circle cx="27.8809" cy="152.833" r="3.5" fill="#1176BB"/>
<circle cx="40.0703" cy="152.833" r="3.5" fill="#1176BB"/>
<circle cx="52.2617" cy="152.833" r="3.5" fill="#1176BB"/>
<circle cx="64.4512" cy="152.833" r="3.5" fill="#1176BB"/>
<circle cx="76.6426" cy="152.833" r="3.5" fill="#1176BB"/>
<circle cx="88.832" cy="152.833" r="3.5" fill="#1176BB"/>
<circle cx="101.021" cy="152.833" r="3.5" fill="#1176BB"/>
<circle cx="113.213" cy="152.833" r="3.5" fill="#1176BB"/>
<circle cx="3.5" cy="171.5" r="3.5" fill="#1176BB"/>
<circle cx="15.6895" cy="171.5" r="3.5" fill="#1176BB"/>
<circle cx="27.8809" cy="171.5" r="3.5" fill="#1176BB"/>
<circle cx="40.0703" cy="171.5" r="3.5" fill="#1176BB"/>
<circle cx="52.2617" cy="171.5" r="3.5" fill="#1176BB"/>
<circle cx="64.4512" cy="171.5" r="3.5" fill="#1176BB"/>
<circle cx="76.6426" cy="171.5" r="3.5" fill="#1176BB"/>
<circle cx="88.832" cy="171.5" r="3.5" fill="#1176BB"/>
<circle cx="101.021" cy="171.5" r="3.5" fill="#1176BB"/>
<circle cx="113.213" cy="171.5" r="3.5" fill="#1176BB"/>
</svg>
